<?xml version="1.0" standalone="no"?>
<!DOCTYPE svg PUBLIC "-//W3C//DTD SVG 20010904//EN"
 "http://www.w3.org/TR/2001/REC-SVG-20010904/DTD/svg10.dtd">
<svg version="1.0" xmlns="http://www.w3.org/2000/svg"
 width="700.000000pt" height="700.000000pt" viewBox="0 0 700.000000 700.000000"
 preserveAspectRatio="xMidYMid meet">
<metadata>
Created by potrace 1.14, written by Peter Selinger 2001-2017
</metadata>
<g transform="translate(0.000000,700.000000) scale(0.100000,-0.100000)"
fill="#000000" stroke="none">
<path d="M4208 6415 c-2 -2 -34 -6 -73 -9 -90 -8 -130 -14 -185 -27 -25 -6
-65 -15 -90 -21 -240 -55 -505 -179 -630 -295 -129 -119 -138 -210 -30 -285
l52 -36 -29 -16 c-23 -12 -24 -15 -8 -15 11 0 29 4 40 8 40 16 46 2 20 -50
-32 -63 -19 -64 20 -1 36 59 41 62 76 52 16 -5 88 -9 160 -9 111 0 141 4 200
24 102 34 142 62 270 188 194 191 270 228 459 227 58 0 125 -2 150 -5 72 -9
195 -25 216 -29 10 -2 54 -9 96 -16 43 -7 82 -18 87 -24 7 -9 69 -114 159
-271 23 -40 61 -135 78 -192 21 -70 22 -221 3 -277 -12 -34 -21 -41 -69 -59
-138 -49 -249 -92 -298 -113 -29 -13 -57 -24 -62 -24 -6 0 -18 -4 -28 -10 -9
-5 -35 -17 -57 -26 -64 -27 -432 -209 -520 -256 -161 -87 -393 -238 -492 -320
-46 -39 -119 -122 -165 -188 -16 -24 -17 -22 -18 80 -2 119 0 263 3 266 1 1
25 4 54 8 124 15 363 79 363 98 0 4 7 8 16 8 8 0 41 14 72 31 31 18 71 39 87
48 17 9 32 18 35 21 3 3 32 23 65 45 78 52 271 244 318 317 45 69 47 98 7 131
-27 23 -145 68 -215 82 -82 16 -204 31 -345 42 -194 16 -862 8 -980 -11 -14
-2 -55 -7 -92 -10 -80 -7 -301 -50 -358 -70 -53 -18 -108 -56 -116 -79 -18
-57 115 -235 269 -360 176 -143 410 -249 627 -284 l110 -18 0 -257 0 -256 -30
-69 c-16 -37 -35 -76 -40 -85 -14 -24 1 -23 33 2 14 11 28 17 30 12 7 -10 7
-972 0 -989 -4 -11 -18 -3 -50 29 -83 80 -124 196 -126 352 -1 138 8 207 53
392 17 67 30 128 30 135 0 21 -121 -171 -162 -257 -54 -116 -71 -191 -70 -309
1 -176 55 -300 187 -430 45 -44 96 -92 113 -106 l32 -27 -2 -108 c-1 -86 -5
-111 -17 -120 -9 -6 -106 -58 -216 -114 -244 -125 -368 -190 -378 -199 -4 -4
269 -6 605 -5 753 2 687 1 663 17 -11 8 -112 62 -225 120 -113 59 -238 123
-277 144 l-73 38 0 96 0 97 69 -28 c133 -54 232 -73 383 -72 143 1 179 4 289
27 179 38 358 131 456 239 53 57 118 178 138 257 8 28 13 85 11 127 -4 146
-76 247 -261 367 -60 40 -126 80 -145 90 -35 17 -35 17 8 -20 66 -57 130 -125
172 -180 70 -94 94 -159 98 -258 2 -58 -2 -77 -25 -125 -33 -68 -108 -147
-180 -190 -29 -18 -53 -29 -53 -25 0 3 -8 -1 -17 -9 -27 -23 -174 -75 -233
-83 -29 -4 -62 -9 -74 -11 -42 -9 -293 -5 -351 5 -33 6 -78 13 -100 17 -60 9
-58 9 -142 45 l-43 18 0 564 0 564 58 39 c31 21 71 45 87 54 17 9 48 27 70 40
139 82 609 317 1000 500 95 44 247 134 281 165 6 5 23 19 39 30 142 103 318
276 389 384 62 95 87 167 88 256 2 94 -29 158 -119 248 -86 86 -163 139 -305
211 -99 50 -119 64 -157 114 -107 138 -252 214 -491 257 -34 6 -267 14 -272
10z"/>
<path d="M1162 3717 c-27 -81 -22 -148 17 -257 16 -47 41 -131 56 -188 20 -83
89 -286 131 -386 4 -11 -30 18 -77 65 -75 75 -93 88 -166 117 -85 33 -185 62
-215 62 -20 0 -14 -13 45 -102 85 -127 174 -183 381 -239 l89 -24 29 -53 c17
-29 32 -51 35 -49 2 3 -9 26 -25 53 -119 205 -263 637 -240 722 18 65 20 77
23 129 2 29 -1 69 -6 90 -16 61 -41 123 -49 123 -5 0 -17 -28 -28 -63z"/>
<path d="M5739 3663 c-33 -85 -36 -167 -10 -253 15 -48 20 -83 15 -103 -13
-64 4 -19 34 88 17 61 32 133 33 160 2 49 -24 149 -41 160 -5 3 -19 -21 -31
-52z"/>
<path d="M5722 3231 c-7 -21 -12 -45 -11 -52 0 -8 7 8 15 35 9 26 13 50 11 52
-2 2 -9 -13 -15 -35z"/>
<path d="M5988 3105 c-175 -48 -278 -116 -363 -239 -21 -31 -41 -53 -45 -51
-4 2 -14 -11 -22 -29 l-16 -33 96 28 c180 51 234 76 310 144 29 26 64 68 79
94 15 25 35 57 45 70 19 25 23 42 11 40 -5 0 -47 -11 -95 -24z"/>
<path d="M5672 3063 c-15 -48 -8 -55 8 -8 7 20 10 38 8 41 -3 2 -10 -13 -16
-33z"/>
<path d="M5646 2995 c-9 -26 -7 -32 5 -12 6 10 9 21 6 23 -2 3 -7 -2 -11 -11z"/>
<path d="M5617 2918 c-9 -23 -15 -43 -13 -45 2 -2 11 15 20 38 9 23 15 43 13
45 -2 2 -11 -15 -20 -38z"/>
<path d="M1650 2837 c-19 -28 -40 -65 -47 -82 -14 -36 -17 -221 -4 -230 11 -6
73 94 91 149 10 33 9 200 -2 211 -2 2 -19 -19 -38 -48z"/>
<path d="M5318 2873 c-2 -10 -5 -56 -7 -104 -3 -89 3 -105 78 -230 l16 -27 30
42 c19 27 22 35 8 23 -20 -17 -20 -17 -20 60 0 84 -24 153 -76 221 -20 27 -25
29 -29 15z"/>
<path d="M5586 2843 c-6 -14 -5 -15 5 -6 7 7 10 15 7 18 -3 3 -9 -2 -12 -12z"/>
<path d="M5526 2723 c-6 -14 -5 -15 5 -6 7 7 10 15 7 18 -3 3 -9 -2 -12 -12z"/>
<path d="M5505 2689 c-4 -6 -5 -12 -2 -15 2 -3 7 2 10 11 7 17 1 20 -8 4z"/>
<path d="M5480 2640 c-6 -11 -8 -20 -6 -20 3 0 10 9 16 20 6 11 8 20 6 20 -3
0 -10 -9 -16 -20z"/>
<path d="M1520 2601 c18 -28 36 -53 41 -56 5 -4 -5 17 -23 45 -17 28 -36 53
-40 56 -5 3 5 -17 22 -45z"/>
<path d="M1575 2520 c22 -39 147 -199 182 -230 l38 -35 -35 39 c-19 22 -41 47
-49 55 -8 9 -39 50 -69 91 -57 77 -82 107 -67 80z"/>
<path d="M1949 2394 c-2 -95 2 -146 15 -184 13 -39 71 -131 105 -167 12 -12
21 -25 21 -28 0 -23 -70 27 -180 129 -46 43 -47 37 -2 -12 23 -25 12 -23 -31
7 -64 43 -155 88 -210 102 -65 16 -357 1 -357 -18 0 -22 176 -130 240 -147 65
-17 243 -15 337 4 57 11 64 11 86 -6 165 -130 391 -281 519 -349 20 -10 35
-22 33 -25 -2 -3 -23 -7 -47 -8 -73 -4 -131 -26 -220 -83 -83 -53 -198 -140
-198 -149 0 -5 12 -11 28 -14 15 -4 38 -9 52 -12 68 -14 163 -16 207 -4 53 15
201 101 277 161 27 22 52 39 56 39 4 0 68 -24 142 -54 74 -30 216 -81 316
-114 184 -61 209 -74 281 -139 l40 -35 -69 -69 c-163 -163 -265 -338 -342
-587 -20 -66 -18 -82 11 -82 28 0 56 -38 52 -71 -3 -38 45 -87 112 -111 56
-20 55 -25 28 102 -22 104 -25 331 -6 405 7 28 31 86 52 130 31 67 53 95 125
163 47 45 91 82 97 82 5 0 50 -39 98 -88 116 -114 171 -217 190 -352 12 -84 5
-273 -11 -320 -3 -8 -8 -31 -11 -50 -4 -19 -9 -47 -12 -62 -3 -16 -3 -28 1
-28 17 0 117 51 135 69 12 12 21 34 21 50 0 46 10 61 51 78 22 8 39 17 39 19
0 2 -18 55 -41 117 -86 236 -180 388 -333 536 -74 72 -76 74 -56 88 12 8 39
32 60 52 32 31 67 47 192 89 213 72 315 109 373 136 116 53 111 53 163 15 190
-136 278 -180 366 -180 47 0 194 26 204 36 11 11 -193 161 -271 199 -61 30
-81 34 -162 35 l-60 1 83 50 c46 28 85 50 88 50 19 0 346 238 360 263 4 7 -2
4 -13 -6 -38 -33 -33 -17 15 56 26 39 54 86 61 102 15 34 24 178 13 219 l-8
28 -37 -45 c-20 -25 -37 -50 -37 -55 0 -5 -9 -17 -19 -26 -42 -38 -63 -114
-64 -224 l0 -104 -66 -42 c-103 -66 -262 -158 -266 -154 -2 2 9 41 25 88 29
88 32 148 10 175 -17 21 -23 13 -49 -63 -32 -94 -36 -143 -17 -180 16 -30 15
-32 -6 -46 -20 -13 -87 -44 -194 -92 -36 -16 -214 -85 -229 -88 -5 -2 -23 -8
-38 -14 -16 -7 -34 -12 -42 -12 -8 0 -16 -4 -19 -9 -3 -4 -18 -11 -33 -14 -16
-3 -37 -9 -48 -13 -11 -4 11 24 48 61 76 77 131 154 152 215 15 41 20 71 30
179 l7 64 -32 -23 c-62 -44 -186 -178 -213 -230 -29 -57 -53 -138 -62 -215
-10 -87 -11 -88 -94 -137 -43 -27 -82 -48 -86 -48 -4 0 -41 -16 -82 -35 l-75
-35 -50 25 c-27 14 -55 25 -62 25 -6 0 -36 13 -66 30 -30 16 -78 42 -107 57
l-51 26 -7 61 c-18 162 -61 266 -148 356 -84 88 -169 151 -161 120 1 -3 4 -37
8 -76 12 -153 58 -242 184 -361 37 -35 62 -63 55 -63 -15 0 -366 126 -418 150
-11 5 -49 21 -83 35 -87 35 -415 215 -475 260 -16 11 -18 28 -19 115 0 56 -5
116 -11 134 -17 50 -88 163 -124 198 l-33 32 -1 -60z"/>
<path d="M5329 2413 c-13 -16 -12 -17 4 -4 16 13 21 21 13 21 -2 0 -10 -8 -17
-17z"/>
<path d="M5270 2345 c-13 -14 -22 -27 -19 -29 2 -2 14 10 27 25 29 36 24 38
-8 4z"/>
<path d="M5204 2268 l-29 -33 33 29 c17 17 32 31 32 33 0 8 -8 1 -36 -29z"/>
<path d="M5312 2260 c-30 -10 -82 -35 -117 -54 -35 -19 -65 -33 -68 -30 -2 2
-33 -23 -68 -57 -51 -49 -55 -55 -22 -32 41 29 42 29 100 18 32 -7 110 -13
173 -13 100 -1 124 3 175 23 57 24 218 125 210 133 -12 12 -96 23 -205 27
-106 4 -133 1 -178 -15z"/>
<path d="M5146 2202 l-19 -27 26 24 c28 26 32 31 20 31 -5 0 -17 -13 -27 -28z"/>
<path d="M2410 2055 c-7 -9 -13 -31 -12 -51 2 -43 55 -199 68 -198 19 2 34 50
29 90 -7 53 -48 167 -62 171 -5 2 -16 -3 -23 -12z"/>
</g>
</svg>
